HIERARCHY
ROOT hip
{
  OFFSET 0 0 0
  CHANNELS 6 Xposition Yposition Zposition Zrotation Yrotation Xrotation
  JOINT abdomen
  {
    OFFSET 0 20.6881 -0.73152
    CHANNELS 3 Zrotation Xrotation Yrotation
    JOINT chest
    {
      OFFSET 0 11.7043 -0.48768
      CHANNELS 3 Zrotation Xrotation Yrotation
      JOINT neck
      {
        OFFSET 0 22.1894 -2.19456
        CHANNELS 3 Zrotation Xrotation Yrotation
        JOINT head
        {
          OFFSET -0.24384 7.07133 1.2192
          CHANNELS 3 Zrotation Xrotation Yrotation
          JOINT leftEye
          {
            OFFSET 4.14528 8.04674 8.04672
            CHANNELS 3 Zrotation Xrotation Yrotation
            End Site
            {
              OFFSET 1 0 0
            }
          }
          JOINT rightEye
          {
            OFFSET -3.6576 8.04674 8.04672
            CHANNELS 3 Zrotation Xrotation Yrotation
            End Site
            {
              OFFSET 1 0 0
            }
          }
        }
      }
      JOINT rCollar
      {
        OFFSET -2.68224 19.2634 -4.8768
        CHANNELS 3 Zrotation Xrotation Yrotation
        JOINT rShldr
        {
          OFFSET -8.77824 -1.95073 1.46304
          CHANNELS 3 Zrotation Xrotation Yrotation
          JOINT rForeArm
          {
            OFFSET -28.1742 -1.7115 0.48768
            CHANNELS 3 Zrotation Xrotation Yrotation
            JOINT rHand
            {
              OFFSET -22.5879 0.773209 7.07136
              CHANNELS 3 Zrotation Xrotation Yrotation
              JOINT rThumb1
              {
                OFFSET -1.2192 -0.487915 3.41376
                CHANNELS 3 Zrotation Xrotation Yrotation
                JOINT rThumb2
                {
                  OFFSET -3.37035 -0.52449 3.41376
                  CHANNELS 3 Zrotation Xrotation Yrotation
                  End Site
                  {
                    OFFSET -1.78271 -1.18214 1.43049
                  }
                }
              }
              JOINT rIndex1
              {
                OFFSET -7.75947 0.938293 5.60832
                CHANNELS 3 Zrotation Xrotation Yrotation
                JOINT rIndex2
                {
                  OFFSET -2.54057 -0.884171 1.56538
                  CHANNELS 3 Zrotation Xrotation Yrotation
                  End Site
                  {
                    OFFSET -1.62519 -0.234802 1.16502
                  }
                }
              }
              JOINT rMid1
              {
                OFFSET -8.24714 1.18213 3.41376
                CHANNELS 3 Zrotation Xrotation Yrotation
                JOINT rMid2
                {
                  OFFSET -3.10165 -0.590103 1.0647
                  CHANNELS 3 Zrotation Xrotation Yrotation
                  End Site
                  {
                    OFFSET -2.48547 -0.328903 0.83742
                  }
                }
              }
              JOINT rRing1
              {
                OFFSET -8.82822 0.546677 1.51678
                CHANNELS 3 Zrotation Xrotation Yrotation
                JOINT rRing2
                {
                  OFFSET -2.60934 -0.819778 -0.0198488
                  CHANNELS 3 Zrotation Xrotation Yrotation
                  End Site
                  {
                    OFFSET -2.33842 -0.294052 0.168128
                  }
                }
              }
              JOINT rPinky1
              {
                OFFSET -8.27202 -0.0477905 -0.4584
                CHANNELS 3 Zrotation Xrotation Yrotation
                JOINT rPinky2
                {
                  OFFSET -1.82734 -0.647385 -0.700984
                  CHANNELS 3 Zrotation Xrotation Yrotation
                  End Site
                  {
                    OFFSET -1.69225 -0.51767 -0.607171
                  }
                }
              }
            }
          }
        }
      }
      JOINT lCollar
      {
        OFFSET 2.68224 19.2634 -4.8768
        CHANNELS 3 Zrotation Xrotation Yrotation
        JOINT lShldr
        {
          OFFSET 8.77824 -1.95073 1.46304
          CHANNELS 3 Zrotation Xrotation Yrotation
          JOINT lForeArm
          {
            OFFSET 28.1742 -1.7115 0.48768
            CHANNELS 3 Zrotation Xrotation Yrotation
            JOINT lHand
            {
              OFFSET 22.5879 0.773209 7.07136
              CHANNELS 3 Zrotation Xrotation Yrotation
              JOINT lThumb1
              {
                OFFSET 1.2192 -0.487915 3.41376
                CHANNELS 3 Zrotation Xrotation Yrotation
                JOINT lThumb2
                {
                  OFFSET 3.37035 -0.52449 3.41376
                  CHANNELS 3 Zrotation Xrotation Yrotation
                  End Site
                  {
                    OFFSET 1.78271 -1.18214 1.43049
                  }
                }
              }
              JOINT lIndex1
              {
                OFFSET 7.75947 0.938293 5.60832
                CHANNELS 3 Zrotation Xrotation Yrotation
                JOINT lIndex2
                {
                  OFFSET 2.54057 -0.884171 1.56538
                  CHANNELS 3 Zrotation Xrotation Yrotation
                  End Site
                  {
                    OFFSET 1.62519 -0.234802 1.16502
                  }
                }
              }
              JOINT lMid1
              {
                OFFSET 8.24714 1.18213 3.41376
                CHANNELS 3 Zrotation Xrotation Yrotation
                JOINT lMid2
                {
                  OFFSET 3.10165 -0.590103 1.0647
                  CHANNELS 3 Zrotation Xrotation Yrotation
                  End Site
                  {
                    OFFSET 2.48547 -0.328903 0.83742
                  }
                }
              }
              JOINT lRing1
              {
                OFFSET 8.82822 0.546677 1.51678
                CHANNELS 3 Zrotation Xrotation Yrotation
                JOINT lRing2
                {
                  OFFSET 2.60934 -0.819778 -0.0198488
                  CHANNELS 3 Zrotation Xrotation Yrotation
                  End Site
                  {
                    OFFSET 2.33842 -0.294052 0.168128
                  }
                }
              }
              JOINT lPinky1
              {
                OFFSET 8.27202 -0.0477905 -0.4584
                CHANNELS 3 Zrotation Xrotation Yrotation
                JOINT lPinky2
                {
                  OFFSET 1.82734 -0.647385 -0.700984
                  CHANNELS 3 Zrotation Xrotation Yrotation
                  End Site
                  {
                    OFFSET 1.69225 -0.51767 -0.607171
                  }
                }
              }
            }
          }
        }
      }
    }
  }
  JOINT rButtock
  {
    OFFSET -8.77824 4.35084 1.2192
    CHANNELS 3 Zrotation Xrotation Yrotation
    JOINT rThigh
    {
      OFFSET 0 -1.70687 -2.19456
      CHANNELS 3 Zrotation Xrotation Yrotation
      JOINT rShin
      {
        OFFSET 0 -36.8199 0.73152
        CHANNELS 3 Zrotation Xrotation Yrotation
        JOINT rFoot
        {
          OFFSET 0.73152 -45.1104 -5.12064
          CHANNELS 3 Zrotation Xrotation Yrotation
          End Site
          {
            OFFSET -1.1221 -3.69964 12.103
          }
        }
      }
    }
  }
  JOINT lButtock
  {
    OFFSET 8.77824 4.35084 1.2192
    CHANNELS 3 Zrotation Xrotation Yrotation
    JOINT lThigh
    {
      OFFSET 0 -1.70687 -2.19456
      CHANNELS 3 Zrotation Xrotation Yrotation
      JOINT lShin
      {
        OFFSET 0 -36.8199 0.73152
        CHANNELS 3 Zrotation Xrotation Yrotation
        JOINT lFoot
        {
          OFFSET -0.73152 -45.1104 -5.12064
          CHANNELS 3 Zrotation Xrotation Yrotation
          End Site
          {
            OFFSET 1.1221 -3.69964 12.103
          }
        }
      }
    }
  }
}
MOTION
Frames:	4
Frame Time:	0.00833333
39.9798 86.5713 -201.716 204.758 -85.4721 155.301 3.8935 0.154545 -2.40039 3.76613 -8.67102 -0.244075 -1.49013 8.08072 -1.21183 12.6082 -16.1823 -0.743924 -0.0 0.0 0.0 -0.0 0.0 0.0 1.0699e-13 -3.46755e-12 3.18105e-13 72.6865 14.5643 -16.1554 -14.1384 -7.06666 25.8329 -0.639902 22.1138 3.27378 -2.04652e-09 -1.93685e-09 6.10094e-10 -3.52236e-09 -3.3735e-09 1.09337e-09 -2.04651e-09 -1.93685e-09 6.10081e-10 7.73091 5.47488 0.417314 -2.04651e-09 -1.93685e-09 6.10088e-10 2.90554 0.965183 0.102902 -2.04652e-09 -1.93685e-09 6.10087e-10 10.2786 0.731801 0.0259123 -2.04651e-09 -1.93685e-09 6.10091e-10 2.22167 -0.733487 -0.20892 1.06959e-13 -3.46755e-12 3.18006e-13 -77.2647 58.3382 -3.57832 17.9692 -10.6536 -33.9512 0.180241 12.01 -1.71331 6.80778e-10 7.80072e-10 -6.40856e-10 1.17179e-09 1.35147e-09 -1.11836e-09 6.80779e-10 7.80074e-10 -6.40856e-10 -7.73091 5.47488 -0.417314 6.80778e-10 7.80078e-10 -6.4086e-10 -2.90554 0.965183 -0.102902 6.80776e-10 7.80073e-10 -6.40863e-10 -10.2786 0.731801 -0.0259123 6.80785e-10 7.80075e-10 -6.40869e-10 -2.22167 -0.733487 0.20892 -2.03217e-16 0.0 -3.88251e-19 1.63329 -11.2133 19.4367 -0.115079 31.8209 0.395243 -1.56473 -10.9746 -2.80317 2.03217e-16 0.0 3.88251e-19 -2.46652 -8.84819 -24.302 0.218628 28.8729 -0.391778 -2.46807 -13.235 -10.407
40.1217 86.5811 -202.06 214.898 -86.7819 145.299 4.04982 0.0610493 -2.03551 3.61478 -8.77247 -0.144652 -0.83818 8.36584 -0.479437 11.6299 -17.0699 0.616882 -0.0 0.0 0.0 -0.0 0.0 0.0 9.25382e-14 -2.98882e-12 2.75514e-13 72.1881 14.6171 -16.0284 -14.1925 -7.11093 25.9421 -0.625402 21.8653 3.23339 -1.98558e-09 -2.23918e-09 1.12819e-09 -3.40896e-09 -3.88886e-09 1.98769e-09 -1.98558e-09 -2.23918e-09 1.12818e-09 7.73091 5.47488 0.417314 -1.98558e-09 -2.23918e-09 1.12819e-09 2.90554 0.965183 0.102902 -1.98558e-09 -2.23917e-09 1.12819e-09 10.2786 0.731801 0.0259123 -1.98558e-09 -2.23918e-09 1.12819e-09 2.22167 -0.733487 -0.20892 9.2536e-14 -2.98881e-12 2.75413e-13 -77.2734 56.8057 -3.00664 17.7718 -10.4422 -33.5137 0.197097 12.5273 -1.78962 8.99614e-10 3.37118e-10 -4.83514e-10 1.55093e-09 5.85691e-10 -8.49498e-10 8.99615e-10 3.37119e-10 -4.8351e-10 -7.73091 5.47488 -0.417314 8.99614e-10 3.37122e-10 -4.83516e-10 -2.90554 0.965183 -0.102902 8.99612e-10 3.37118e-10 -4.83518e-10 -10.2786 0.731801 -0.0259123 8.99622e-10 3.3712e-10 -4.83524e-10 -2.22167 -0.733487 0.20892 -2.03217e-16 0.0 -3.88251e-19 1.98217 -10.8003 19.0661 -0.100082 31.3959 0.406421 -1.82331 -11.2218 -3.83859 2.03217e-16 0.0 3.88251e-19 -2.1597 -9.43119 -24.4961 0.223174 29.2768 -0.401001 -2.60429 -13.01 -10.9631
40.1377 86.6072 -202.359 234.861 -87.7875 125.276 4.19775 0.0143985 -1.72217 3.49101 -8.93388 -0.0565099 -0.215033 8.79293 0.287763 10.7277 -18.1529 2.06777 -0.0 0.0 0.0 -0.0 0.0 0.0 5.90126e-14 -1.92789e-12 1.86121e-13 71.6935 14.7122 -15.8937 -14.2522 -7.15987 26.0628 -0.621388 21.8 3.2227 -1.61677e-09 -2.43648e-09 1.84643e-09 -2.7609e-09 -4.21491e-09 3.22187e-09 -1.61677e-09 -2.43648e-09 1.84642e-09 7.73091 5.47488 0.417314 -1.61677e-09 -2.43648e-09 1.84643e-09 2.90554 0.965183 0.102902 -1.61677e-09 -2.43648e-09 1.84642e-09 10.2786 0.731801 0.0259123 -1.61678e-09 -2.43648e-09 1.84643e-09 2.22167 -0.733487 -0.20892 5.90476e-14 -1.92788e-12 1.85991e-13 -77.1846 55.1223 -2.46134 17.598 -10.2601 -33.1267 0.210663 12.9423 -1.85097 1.15507e-09 -4.96623e-10 -1.45663e-10 1.99454e-09 -8.5599e-10 -2.68907e-10 1.15508e-09 -4.96623e-10 -1.45654e-10 -7.73091 5.47488 -0.417314 1.15507e-09 -4.9662e-10 -1.45663e-10 -2.90554 0.965183 -0.102902 1.15507e-09 -4.96624e-10 -1.45664e-10 -10.2786 0.731801 -0.0259123 1.15508e-09 -4.96622e-10 -1.45669e-10 -2.22167 -0.733487 0.20892 -2.03217e-16 0.0 -3.88251e-19 2.34989 -10.4488 18.6542 -0.0844913 30.9676 0.418655 -2.08508 -11.4833 -4.86132 2.03217e-16 0.0 3.88251e-19 -1.82326 -10.097 -24.5888 0.228127 29.7108 -0.410731 -2.76643 -12.7797 -11.6044
40.1681 86.5864 -202.718 259.542 -88.1013 100.906 4.32042 -0.0136847 -1.43919 3.37397 -9.11263 0.0232899 0.416052 9.28453 1.08436 9.83381 -19.3017 3.57147 -0.0 0.0 0.0 -0.0 0.0 0.0 2.29147e-14 -6.93984e-13 8.35924e-14 71.1845 14.8316 -15.7257 -14.3139 -7.21052 26.1876 -0.621174 21.8033 3.22308 -1.08876e-09 -2.39391e-09 2.39188e-09 -1.8407e-09 -4.12607e-09 4.15439e-09 -1.08875e-09 -2.39391e-09 2.39187e-09 7.73091 5.47488 0.417314 -1.08875e-09 -2.39392e-09 2.39189e-09 2.90554 0.965183 0.102902 -1.08875e-09 -2.39391e-09 2.39188e-09 10.2786 0.731801 0.0259123 -1.08876e-09 -2.39391e-09 2.39188e-09 2.22167 -0.733487 -0.20892 2.29862e-14 -6.93972e-13 8.34232e-14 -77.1027 53.1809 -1.8885 17.4444 -10.1016 -32.7851 0.223051 13.3214 -1.90711 1.32374e-09 -1.28734e-09 2.3391e-10 2.28859e-09 -2.22347e-09 3.85243e-10 1.32374e-09 -1.28735e-09 2.33925e-10 -7.73091 5.47488 -0.417314 1.32374e-09 -1.28734e-09 2.33912e-10 -2.90554 0.965183 -0.102902 1.32374e-09 -1.28735e-09 2.33912e-10 -10.2786 0.731801 -0.0259123 1.32375e-09 -1.28734e-09 2.33907e-10 -2.22167 -0.733487 0.20892 -2.03217e-16 0.0 -3.88251e-19 2.71268 -10.1405 18.2604 -0.0691219 30.5529 0.431045 -2.35194 -11.7272 -5.88144 2.03217e-16 0.0 3.88251e-19 -1.51165 -10.7805 -24.651 0.233072 30.1421 -0.420712 -2.91474 -12.5392 -12.22
